# xmcd
#
# Track frame offsets: 
#        150
#        11242
#        22841
#        35980
#        49523
#        60276
#        73965
#        88528
#        102610
#        114088
#        126519
#        139363
#
# Disc length: 1996 seconds
#
# Revision: 3
# Processed by: cddbd v1.5.2PL0 Copyright (c) Steve Scherf et al.
# Submitted via: ExactAudioCopy v0.99pb5
#
DISCID=a907ca0c
DTITLE=Vern Gosdin - Rough Around The Edges
DYEAR=1997
DGENRE=Country
TTITLE0=Your Bedroom Eyes
TTITLE1=When Love Was All We Had To Share
TTITLE2=Loving You Is Music To My Mind
TTITLE3=It's Not Over (If I'm Not Over You)
TTITLE4=Weekends Were Made For Cheatin'
TTITLE5=Rough Around The Edges
TTITLE6=Cowboys Are Common As Sin
TTITLE7=It's Beginning To Look Like The End
TTITLE8=Lady
TTITLE9=My Baby Sings The Blues
TTITLE10=Too Long Gone
TTITLE11=Love Is Like An Echo
EXTD=
EXTT0=
EXTT1=
EXTT2=
EXTT3=
EXTT4=
EXTT5=
EXTT6=
EXTT7=
EXTT8=
EXTT9=
EXTT10=
EXTT11=
PLAYORDER=
